REM MD5 798c57dc4114a2b5ddc869a5923ef9dd
FILE "Pizza Hut Demo 01 (France).bin" BINARY
  TRACK 01 MODE2/2352
    INDEX 01 00:00:00
  TRACK 02 AUDIO
    INDEX 00 09:54:04
    INDEX 01 09:56:04
  TRACK 03 AUDIO
    INDEX 00 12:43:18
    INDEX 01 12:45:18
REM LEADOUT 15:46:50
